<svg fill="#000000" xmlns="http://www.w3.org/2000/svg" viewBox="0 0 24 24" width="100px" height="100px"><path fill="none" stroke="#000000" stroke-miterlimit="10" stroke-width="2" d="M17,20V1H1v19c0,1.657,1.343,3,3,3h16C18.343,23,17,21.657,17,20z"/><path fill="none" stroke="#000000" stroke-miterlimit="10" stroke-width="2" d="M17,5h6v15c0,1.657-1.343,3-3,3"/><path d="M4 4H14V7H4z"/><path fill="none" stroke="#000000" stroke-miterlimit="10" stroke-width="2" d="M4 10L8 10M10 10L14 10M4 13L8 13M10 13L14 13M4 16L8 16M10 16L14 16M4 19L8 19M10 19L14 19M17 9L20 9M17 12L20 12M17 15L20 15M17 18L20 18"/></svg>