<?xml version="1.0" encoding="UTF-8"?>
<svg xmlns="http://www.w3.org/2000/svg" xmlns:xlink="http://www.w3.org/1999/xlink" width="100pt" height="100pt" viewBox="0 0 100 100" version="1.1">
<g id="surface21046009">
<path style=" stroke:none;fill-rule:nonzero;fill:rgb(49.019608%,49.803922%,50.588238%);fill-opacity:1;" d="M 85.71875 12.546875 C 84.332031 12.402344 82.828125 12.617188 81.316406 13.214844 C 79.441406 13.953125 50.058594 26.3125 22.671875 37.839844 L 13.625 41.648438 C 10.117188 43.070312 8.351562 45.382812 8.351562 48.496094 C 8.351562 50.671875 9.273438 53.628906 13.671875 55.371094 L 28.945312 61.492188 C 30.269531 65.453125 33.335938 74.652344 34.105469 77.097656 C 34.566406 78.550781 35.722656 82.203125 38.648438 83.054688 C 39.246094 83.261719 39.875 83.367188 40.511719 83.367188 C 42.355469 83.367188 43.6875 82.507812 44.335938 82.007812 L 54.042969 73.796875 L 65.835938 84.699219 C 66.289062 85.164062 68.695312 87.5 71.925781 87.5 C 75.953125 87.5 79.007812 84.144531 79.648438 80.898438 C 79.992188 79.121094 91.367188 22.03125 91.367188 22.039062 C 92.386719 17.457031 90.550781 15.082031 89.371094 14.070312 C 88.363281 13.207031 87.101562 12.695312 85.71875 12.546875 Z M 82.957031 21.550781 C 81.386719 29.425781 72.824219 72.410156 71.523438 78.605469 L 54.289062 62.664062 L 42.59375 72.566406 L 45.832031 59.894531 C 45.832031 59.894531 68.175781 37.277344 69.523438 35.960938 C 70.605469 34.90625 70.832031 34.539062 70.832031 34.171875 C 70.832031 33.683594 70.582031 33.332031 70.003906 33.332031 C 69.480469 33.332031 68.773438 33.832031 68.398438 34.066406 C 63.636719 37.035156 43.351562 48.59375 33.367188 54.273438 L 18.878906 48.488281 L 25.910156 45.53125 C 43.824219 37.992188 75.726562 24.558594 82.957031 21.550781 Z M 82.957031 21.550781 "/>
</g>
</svg>
